<?xml version="1.0" encoding="UTF-8" standalone="no"?><!-- Generator: Gravit.io --><svg xmlns="http://www.w3.org/2000/svg" xmlns:xlink="http://www.w3.org/1999/xlink" style="isolation:isolate" viewBox="0 0 128 128" width="128pt" height="128pt"><defs><clipPath id="_clipPath_wiJThZT7mYN3juI1P4lmrObwqFi4Q7lr"><rect width="128" height="128"/></clipPath></defs><g clip-path="url(#_clipPath_wiJThZT7mYN3juI1P4lmrObwqFi4Q7lr)"><rect x="0" y="0" width="128" height="128" transform="matrix(1,0,0,1,0,0)" fill="rgb(255,255,255)"/><g><path d=" M 36.151 66.313 C 33.237 66.313 30.105 66.419 27.237 66.949 C 27.237 70.247 27.477 73.65 27.085 76.922 C 26.915 78.344 26.843 79.676 26.099 80.954 C 24.499 83.708 20.073 84.911 18.404 81.59 C 17.087 78.967 17.687 75.312 17.687 72.468 L 17.687 52.945 L 17.687 46.157 C 17.687 44.619 17.589 43.07 18.427 41.703 C 20.091 38.985 24.919 38.807 26.513 41.7 C 27.814 44.067 27.237 47.79 27.237 50.4 L 36.151 50.189 C 36.151 45.696 36.671 40.726 33.982 36.821 C 31.212 32.802 26.256 31.941 21.719 31.941 C 19.818 31.941 17.788 32.075 15.99 32.75 C 14.243 33.405 12.612 34.353 11.36 35.759 C 8.269 39.235 8.137 43.892 8.137 48.277 L 8.137 57.402 L 8.137 76.922 C 8.137 82.208 8.428 88.278 11.855 92.624 C 16.989 99.139 27.266 95.344 31.583 89.865 C 36.87 83.159 36.151 74.322 36.151 66.313 L 36.151 66.313 Z  M 46.427 44.67 C 44.519 55.256 42.72 65.852 41.187 76.497 C 40.456 81.564 39.338 86.866 39.335 91.987 C 41.244 91.949 43.153 91.614 45.065 91.565 C 45.781 91.549 47.095 91.82 47.695 91.343 C 48.401 90.787 48.228 88.783 48.336 87.956 C 48.777 84.656 49.259 81.301 49.521 77.983 L 60.98 77.983 C 60.993 82.499 62.111 87.059 62.467 91.562 C 65.656 91.699 68.828 92.273 72.017 92.413 C 71.914 87.433 70.873 82.275 70.165 77.347 C 68.722 67.341 67.109 57.376 65.316 47.429 C 64.664 43.82 63.948 40.221 63.333 36.609 C 63.173 35.666 63.126 33.193 62.338 32.583 C 61.576 31.99 59.571 32.364 58.646 32.364 L 48.671 32.364 C 48.344 36.465 47.159 40.621 46.427 44.67 Z  M 70.319 32.364 L 70.319 39.791 L 80.08 40.002 L 80.08 93.685 C 83.252 94.275 86.436 95.164 89.63 95.594 L 89.63 40.216 L 99.392 40.427 L 99.392 32.578 L 70.319 32.364 Z " fill="rgb(219,34,46)"/><path d=" M 55.091 41.672 C 54.893 44.152 54.316 46.646 53.904 49.101 C 53.11 53.836 52.322 58.572 51.637 63.322 C 51.363 65.221 50.928 67.137 50.846 69.054 C 53.759 69.054 56.647 69.039 59.548 69.265 C 59.53 67.204 59.056 65.146 58.757 63.111 C 58.129 58.857 57.43 54.617 56.735 50.374 L 55.815 44.856 C 55.637 43.805 55.594 42.62 55.091 41.672 Z " fill="rgb(255,255,255)"/></g><path d=" M 103.984 79.65 L 112.089 79.65 L 112.089 67.928 L 123 67.928 L 123 60.072 L 112.089 60.072 L 112.089 48.351 L 103.984 48.351 L 103.984 60.072 L 93.135 60.072 L 93.135 67.928 L 103.984 67.928 L 103.984 79.65 Z " fill="rgb(219,34,46)"/></g></svg>