<?xml version="1.0" encoding="UTF-8" standalone="no"?><!-- Generator: Gravit.io --><svg xmlns="http://www.w3.org/2000/svg" xmlns:xlink="http://www.w3.org/1999/xlink" style="isolation:isolate" viewBox="0 0 150 50" width="150pt" height="50pt"><defs><clipPath id="_clipPath_BiMobUhm3KWJx9ra4Q8fdXt46Wj2kwTm"><rect width="150" height="50"/></clipPath></defs><g clip-path="url(#_clipPath_BiMobUhm3KWJx9ra4Q8fdXt46Wj2kwTm)"><rect x="5" y="7" width="141" height="35.037" transform="matrix(1,0,0,1,0,0)" fill="rgb(0,0,0)" vector-effect="non-scaling-stroke" stroke-width="2" stroke="rgb(255,255,255)" stroke-linejoin="round" stroke-linecap="square" stroke-miterlimit="2"/><g><g><path d=" M 20.327 25.936 C 19.149 25.936 17.882 25.978 16.723 26.193 C 16.723 27.526 16.82 28.902 16.662 30.225 C 16.593 30.8 16.563 31.338 16.263 31.855 C 15.616 32.969 13.826 33.455 13.151 32.113 C 12.618 31.053 12.861 29.574 12.861 28.424 L 12.861 20.531 L 12.861 17.785 C 12.861 17.164 12.822 16.537 13.16 15.985 C 13.833 14.886 15.785 14.814 16.43 15.984 C 16.957 16.941 16.723 18.446 16.723 19.501 L 20.327 19.415 C 20.327 17.599 20.538 15.59 19.45 14.01 C 18.33 12.385 16.325 12.037 14.492 12.037 C 13.723 12.037 12.902 12.091 12.175 12.364 C 11.468 12.63 10.809 13.013 10.303 13.582 C 9.053 14.987 9 16.87 9 18.643 L 9 22.332 L 9 30.225 C 9 32.363 9.118 34.816 10.503 36.574 C 12.579 39.209 16.735 37.674 18.48 35.459 C 20.618 32.747 20.327 29.174 20.327 25.936 L 20.327 25.936 Z  M 24.482 17.185 C 23.71 21.465 22.984 25.749 22.363 30.054 C 22.068 32.102 21.615 34.245 21.614 36.317 C 22.387 36.301 23.159 36.165 23.931 36.146 C 24.221 36.139 24.752 36.249 24.995 36.057 C 25.28 35.831 25.21 35.021 25.254 34.686 C 25.432 33.352 25.627 31.996 25.733 30.654 L 30.367 30.654 C 30.372 32.48 30.824 34.324 30.967 36.145 C 32.257 36.2 33.54 36.433 34.829 36.488 C 34.787 34.475 34.367 32.39 34.08 30.397 C 33.497 26.352 32.845 22.322 32.119 18.3 C 31.856 16.841 31.566 15.386 31.317 13.924 C 31.253 13.544 31.234 12.544 30.916 12.297 C 30.607 12.057 29.797 12.209 29.423 12.209 L 25.39 12.209 C 25.258 13.867 24.778 15.547 24.482 17.185 Z  M 34.142 12.209 L 34.142 15.211 L 38.089 15.297 L 38.089 37.003 C 39.372 37.242 40.659 37.601 41.951 37.775 L 41.951 15.383 L 45.898 15.469 L 45.898 12.294 L 34.142 12.209 Z " fill="rgb(255,255,255)"/><path d=" M 27.985 15.972 C 27.906 16.975 27.672 17.984 27.505 18.976 C 27.185 20.89 26.865 22.806 26.589 24.726 C 26.478 25.493 26.302 26.269 26.269 27.044 C 27.447 27.044 28.614 27.037 29.787 27.13 C 29.78 26.296 29.588 25.463 29.467 24.641 C 29.214 22.921 28.931 21.207 28.65 19.491 L 28.278 17.26 C 28.207 16.835 28.189 16.355 27.985 15.972 Z " fill="rgb(0,0,0)"/></g></g><path d=" M 50.44 32.337 L 53.7 32.337 L 53.7 28.037 L 56.2 28.037 C 57.34 28.037 58.34 27.837 59.16 27.437 C 59.98 27.037 60.62 26.477 61.06 25.737 C 61.5 25.017 61.72 24.177 61.72 23.217 C 61.72 22.257 61.5 21.417 61.06 20.697 C 60.62 19.977 59.98 19.417 59.16 19.017 C 58.34 18.617 57.34 18.417 56.2 18.417 L 50.44 18.417 L 50.44 32.337 Z  M 53.7 25.277 L 53.7 21.177 L 55.72 21.177 C 56.66 21.177 57.34 21.357 57.78 21.697 C 58.2 22.057 58.42 22.557 58.42 23.217 C 58.42 23.877 58.2 24.397 57.78 24.737 C 57.34 25.097 56.66 25.277 55.72 25.277 L 53.7 25.277 Z  M 66.56 27.277 C 66.56 26.477 66.8 25.837 67.3 25.377 C 67.8 24.917 68.42 24.677 69.2 24.677 L 69.76 24.677 L 69.76 21.837 L 69.3 21.837 C 68.68 21.837 68.12 21.997 67.64 22.297 C 67.14 22.597 66.74 23.037 66.42 23.597 L 66.42 21.917 L 63.52 21.917 L 63.52 32.337 L 66.56 32.337 L 66.56 27.277 Z  M 76 32.637 C 77.04 32.637 77.96 32.397 78.78 31.937 C 79.58 31.477 80.2 30.817 80.66 29.977 C 81.12 29.157 81.34 28.197 81.34 27.117 C 81.34 26.037 81.12 25.077 80.66 24.257 C 80.2 23.437 79.58 22.777 78.78 22.317 C 77.96 21.857 77.04 21.617 76 21.617 C 74.96 21.617 74.04 21.857 73.24 22.317 C 72.44 22.777 71.82 23.437 71.36 24.257 C 70.9 25.077 70.68 26.037 70.68 27.117 C 70.68 28.197 70.9 29.157 71.36 29.977 C 71.82 30.817 72.44 31.477 73.24 31.937 C 74.04 32.397 74.96 32.637 76 32.637 Z  M 76 29.977 C 75.34 29.977 74.8 29.717 74.38 29.197 C 73.96 28.697 73.76 27.997 73.76 27.117 C 73.76 26.237 73.96 25.537 74.38 25.037 C 74.8 24.537 75.34 24.277 76 24.277 C 76.66 24.277 77.22 24.537 77.64 25.037 C 78.06 25.537 78.26 26.237 78.26 27.117 C 78.26 27.997 78.06 28.697 77.64 29.197 C 77.22 29.717 76.66 29.977 76 29.977 Z  M 83.18 32.337 L 86.08 32.337 L 86.08 31.137 C 86.42 31.617 86.86 31.977 87.36 32.237 C 87.86 32.517 88.44 32.637 89.1 32.637 C 90 32.637 90.78 32.397 91.48 31.937 C 92.16 31.477 92.7 30.817 93.1 29.977 C 93.48 29.157 93.68 28.197 93.68 27.117 C 93.68 26.037 93.48 25.077 93.1 24.257 C 92.7 23.437 92.16 22.777 91.48 22.317 C 90.78 21.857 90 21.617 89.1 21.617 C 88.48 21.617 87.94 21.737 87.46 21.977 C 86.96 22.217 86.54 22.557 86.2 22.997 L 86.2 17.837 L 83.18 17.837 L 83.18 32.337 Z  M 88.34 29.977 C 87.68 29.977 87.12 29.717 86.7 29.197 C 86.28 28.697 86.06 27.997 86.06 27.137 C 86.06 26.257 86.28 25.557 86.7 25.037 C 87.12 24.537 87.68 24.277 88.34 24.277 C 89 24.277 89.56 24.537 89.98 25.037 C 90.4 25.537 90.6 26.237 90.6 27.137 C 90.6 28.017 90.4 28.717 89.98 29.217 C 89.56 29.717 89 29.977 88.34 29.977 Z  M 95.52 32.337 L 98.56 32.337 L 98.56 17.837 L 95.52 17.837 L 95.52 32.337 Z  M 105.66 32.637 C 106.88 32.637 107.88 32.357 108.7 31.797 C 109.52 31.257 110.04 30.517 110.3 29.577 L 107.28 29.577 C 107.18 29.757 106.98 29.917 106.72 30.057 C 106.46 30.197 106.1 30.257 105.68 30.257 C 104.4 30.257 103.64 29.537 103.42 28.097 L 110.46 28.097 L 110.46 27.137 C 110.46 25.437 110.04 24.097 109.2 23.097 C 108.36 22.117 107.16 21.617 105.6 21.617 C 104.52 21.617 103.6 21.857 102.82 22.337 C 102.04 22.817 101.44 23.457 101.02 24.277 C 100.6 25.097 100.4 26.037 100.4 27.077 C 100.4 28.797 100.86 30.157 101.8 31.137 C 102.74 32.137 104.02 32.637 105.66 32.637 Z  M 105.58 23.997 C 106.2 23.997 106.68 24.177 107.02 24.557 C 107.34 24.937 107.52 25.437 107.54 26.037 L 103.42 26.037 C 103.64 24.677 104.36 23.997 105.58 23.997 Z  M 112.34 32.337 L 115.38 32.337 L 115.38 26.157 C 115.38 25.577 115.52 25.137 115.78 24.797 C 116.04 24.477 116.4 24.317 116.86 24.317 C 117.32 24.317 117.68 24.477 117.94 24.797 C 118.18 25.137 118.3 25.577 118.3 26.157 L 118.3 32.337 L 121.34 32.337 L 121.34 26.157 C 121.34 25.577 121.48 25.137 121.76 24.797 C 122.02 24.477 122.4 24.317 122.86 24.317 C 123.32 24.317 123.66 24.477 123.92 24.797 C 124.16 25.137 124.28 25.577 124.28 26.157 L 124.28 32.337 L 127.32 32.337 L 127.32 25.797 C 127.32 24.497 127 23.477 126.38 22.737 C 125.76 21.997 124.92 21.617 123.86 21.617 C 123.24 21.617 122.64 21.757 122.1 22.037 C 121.54 22.317 121.06 22.717 120.68 23.217 C 120.38 22.717 120.02 22.317 119.56 22.037 C 119.1 21.757 118.56 21.617 117.98 21.617 C 117.4 21.617 116.88 21.737 116.42 21.977 C 115.96 22.217 115.56 22.557 115.24 22.997 L 115.24 21.917 L 112.34 21.917 L 112.34 32.337 Z  M 132.6 32.637 C 133.16 32.637 133.72 32.517 134.26 32.277 C 134.8 32.057 135.22 31.677 135.54 31.157 L 135.54 32.337 L 138.3 32.337 L 138.3 25.857 C 138.3 24.397 137.9 23.317 137.1 22.637 C 136.28 21.957 135.18 21.617 133.8 21.617 C 132.5 21.617 131.48 21.917 130.7 22.537 C 129.92 23.157 129.46 23.917 129.28 24.817 L 132.14 24.817 C 132.2 24.597 132.38 24.417 132.64 24.237 C 132.9 24.077 133.26 23.997 133.7 23.997 C 134.2 23.997 134.6 24.117 134.9 24.357 C 135.2 24.617 135.34 24.997 135.34 25.517 L 135.34 25.877 L 133.44 25.877 C 132.06 25.877 130.96 26.177 130.18 26.777 C 129.4 27.377 129 28.217 129 29.317 C 129 30.317 129.32 31.117 129.98 31.717 C 130.64 32.337 131.5 32.637 132.6 32.637 Z  M 133.4 30.277 C 132.98 30.277 132.62 30.177 132.34 29.977 C 132.06 29.777 131.92 29.497 131.92 29.117 C 131.92 28.737 132.06 28.437 132.36 28.217 C 132.64 28.017 133.04 27.917 133.58 27.917 L 135.34 27.917 L 135.34 28.517 C 135.34 28.897 135.24 29.217 135.06 29.477 C 134.86 29.737 134.62 29.937 134.32 30.077 C 134.02 30.217 133.7 30.277 133.4 30.277 Z " fill="rgb(255,255,255)"/></g></svg>