<?xml version="1.0" encoding="UTF-8" standalone="no"?><!-- Generator: Gravit.io --><svg xmlns="http://www.w3.org/2000/svg" xmlns:xlink="http://www.w3.org/1999/xlink" style="isolation:isolate" viewBox="0 0 150 50" width="150pt" height="50pt"><defs><clipPath id="_clipPath_ffdBt7qv1AgIQCDvX6SAJLCx0oocF5fp"><rect width="150" height="50"/></clipPath></defs><g clip-path="url(#_clipPath_ffdBt7qv1AgIQCDvX6SAJLCx0oocF5fp)"><clipPath id="_clipPath_EBs1MOFil9WoZUohfUWFmOLjDjlF7mpI"><rect x="0" y="-4" width="150" height="50" transform="matrix(1,0,0,1,0,0)" fill="rgb(255,255,255)"/></clipPath><g clip-path="url(#_clipPath_EBs1MOFil9WoZUohfUWFmOLjDjlF7mpI)"><g><g style="mix-blend-mode:normal;" opacity="0.6"><path d="M 15.161 3 L 135.839 3 C 141.447 3 146 7.553 146 13.161 L 146 27.876 C 146 33.484 141.447 38.037 135.839 38.037 L 15.161 38.037 C 9.553 38.037 5 33.484 5 27.876 L 5 13.161 C 5 7.553 9.553 3 15.161 3 Z" style="stroke:none;fill:#000000;stroke-miterlimit:10;"/><path d="M 15.161 3 L 135.839 3 C 141.447 3 146 7.553 146 13.161 L 146 27.876 C 146 33.484 141.447 38.037 135.839 38.037 L 15.161 38.037 C 9.553 38.037 5 33.484 5 27.876 L 5 13.161 C 5 7.553 9.553 3 15.161 3 Z" style="fill:none;stroke:#FFFFFF;stroke-width:4;stroke-linecap:square;stroke-linejoin:round;stroke-dasharray:0,0;stroke-miterlimit:2;opacity:100;"/></g><path d="M 15.161 3 L 135.839 3 C 141.447 3 146 7.553 146 13.161 L 146 27.876 C 146 33.484 141.447 38.037 135.839 38.037 L 15.161 38.037 C 9.553 38.037 5 33.484 5 27.876 L 5 13.161 C 5 7.553 9.553 3 15.161 3 Z" style="fill:none;stroke:#FFFFFF;stroke-width:4;stroke-linecap:square;stroke-linejoin:round;stroke-dasharray:0,0;stroke-miterlimit:2;opacity:100;"/><g><g><path d=" M 113.327 21.936 C 112.149 21.936 110.882 21.978 109.723 22.193 C 109.723 23.526 109.82 24.902 109.662 26.225 C 109.593 26.8 109.563 27.338 109.263 27.855 C 108.616 28.969 106.826 29.455 106.151 28.113 C 105.618 27.053 105.861 25.574 105.861 24.424 L 105.861 16.531 L 105.861 13.785 C 105.861 13.164 105.822 12.537 106.16 11.985 C 106.833 10.886 108.785 10.814 109.43 11.984 C 109.957 12.941 109.723 14.446 109.723 15.501 L 113.327 15.415 C 113.327 13.599 113.538 11.59 112.45 10.01 C 111.33 8.385 109.325 8.037 107.492 8.037 C 106.723 8.037 105.902 8.091 105.175 8.364 C 104.468 8.63 103.809 9.013 103.303 9.582 C 102.053 10.987 102 12.87 102 14.643 L 102 18.332 L 102 26.225 C 102 28.363 102.118 30.816 103.503 32.574 C 105.579 35.209 109.735 33.674 111.48 31.459 C 113.618 28.747 113.327 25.174 113.327 21.936 L 113.327 21.936 L 113.327 21.936 Z  M 117.482 13.185 C 116.71 17.465 115.984 21.749 115.363 26.054 C 115.068 28.102 114.615 30.245 114.614 32.317 C 115.387 32.301 116.159 32.165 116.931 32.146 C 117.221 32.139 117.752 32.249 117.995 32.057 C 118.28 31.831 118.21 31.021 118.254 30.686 C 118.432 29.352 118.627 27.996 118.733 26.654 L 123.367 26.654 C 123.372 28.48 123.824 30.324 123.967 32.145 C 125.257 32.2 126.54 32.433 127.829 32.488 C 127.787 30.475 127.367 28.39 127.08 26.397 C 126.497 22.352 125.845 18.322 125.119 14.3 C 124.856 12.841 124.566 11.386 124.317 9.924 C 124.253 9.544 124.234 8.544 123.916 8.297 C 123.607 8.057 122.797 8.209 122.423 8.209 L 118.39 8.209 C 118.258 9.867 117.778 11.547 117.482 13.185 L 117.482 13.185 Z  M 127.142 8.209 L 127.142 11.211 L 131.089 11.297 L 131.089 33.003 C 132.372 33.242 133.659 33.601 134.951 33.775 L 134.951 11.383 L 138.898 11.469 L 138.898 8.294 L 127.142 8.209 L 127.142 8.209 Z  M 120.985 11.972 C 120.906 12.975 120.672 13.984 120.505 14.976 C 120.185 16.89 119.865 18.806 119.589 20.726 C 119.478 21.493 119.302 22.269 119.269 23.044 C 120.447 23.044 121.614 23.037 122.787 23.13 C 122.78 22.296 122.588 21.463 122.467 20.641 C 122.214 18.921 121.931 17.207 121.65 15.491 L 121.278 13.26 C 121.207 12.835 121.189 12.355 120.985 11.972 Z " fill-rule="evenodd" fill="rgb(255,255,255)"/></g></g></g></g><path d=" M 16.307 30.789 L 16.307 18.543 L 22.079 28.111 L 27.877 18.491 L 27.877 30.789 L 31.907 30.789 L 31.907 12.693 L 27.175 12.693 L 22.183 21.169 L 17.035 12.693 L 12.277 12.693 L 12.277 30.789 L 16.307 30.789 Z  M 37.315 15.917 C 37.965 15.917 38.537 15.683 39.005 15.241 C 39.447 14.799 39.681 14.227 39.681 13.577 C 39.681 12.927 39.447 12.355 39.005 11.913 C 38.537 11.471 37.965 11.237 37.315 11.237 C 36.665 11.237 36.119 11.471 35.677 11.913 C 35.209 12.355 34.975 12.927 34.975 13.577 C 34.975 14.227 35.209 14.799 35.677 15.241 C 36.119 15.683 36.665 15.917 37.315 15.917 Z  M 35.339 30.789 L 39.291 30.789 L 39.291 17.243 L 35.339 17.243 L 35.339 30.789 Z  M 42.437 30.789 L 46.389 30.789 L 46.389 11.939 L 42.437 11.939 L 42.437 30.789 Z  M 49.509 30.789 L 53.461 30.789 L 53.461 11.939 L 49.509 11.939 L 49.509 30.789 Z  M 62.769 31.179 C 64.121 31.179 65.317 30.867 66.383 30.269 C 67.423 29.671 68.229 28.813 68.827 27.721 C 69.425 26.655 69.711 25.407 69.711 24.003 C 69.711 22.599 69.425 21.351 68.827 20.285 C 68.229 19.219 67.423 18.361 66.383 17.763 C 65.317 17.165 64.121 16.853 62.769 16.853 C 61.417 16.853 60.221 17.165 59.181 17.763 C 58.141 18.361 57.335 19.219 56.737 20.285 C 56.139 21.351 55.853 22.599 55.853 24.003 C 55.853 25.407 56.139 26.655 56.737 27.721 C 57.335 28.813 58.141 29.671 59.181 30.269 C 60.221 30.867 61.417 31.179 62.769 31.179 Z  M 62.769 27.721 C 61.911 27.721 61.209 27.383 60.663 26.707 C 60.117 26.057 59.857 25.147 59.857 24.003 C 59.857 22.859 60.117 21.949 60.663 21.299 C 61.209 20.649 61.911 20.311 62.769 20.311 C 63.627 20.311 64.355 20.649 64.901 21.299 C 65.447 21.949 65.707 22.859 65.707 24.003 C 65.707 25.147 65.447 26.057 64.901 26.707 C 64.355 27.383 63.627 27.721 62.769 27.721 Z  M 76.055 24.211 C 76.055 23.171 76.367 22.339 77.017 21.741 C 77.667 21.143 78.473 20.831 79.487 20.831 L 80.215 20.831 L 80.215 17.139 L 79.617 17.139 C 78.811 17.139 78.083 17.347 77.459 17.737 C 76.809 18.127 76.289 18.699 75.873 19.427 L 75.873 17.243 L 72.103 17.243 L 72.103 30.789 L 76.055 30.789 L 76.055 24.211 Z  M 86.013 31.179 C 86.741 31.179 87.469 31.023 88.171 30.711 C 88.873 30.425 89.419 29.931 89.835 29.255 L 89.835 30.789 L 93.423 30.789 L 93.423 22.365 C 93.423 20.467 92.903 19.063 91.863 18.179 C 90.797 17.295 89.367 16.853 87.573 16.853 C 85.883 16.853 84.557 17.243 83.543 18.049 C 82.529 18.855 81.931 19.843 81.697 21.013 L 85.415 21.013 C 85.493 20.727 85.727 20.493 86.065 20.259 C 86.403 20.051 86.871 19.947 87.443 19.947 C 88.093 19.947 88.613 20.103 89.003 20.415 C 89.393 20.753 89.575 21.247 89.575 21.923 L 89.575 22.391 L 87.105 22.391 C 85.311 22.391 83.881 22.781 82.867 23.561 C 81.853 24.341 81.333 25.433 81.333 26.863 C 81.333 28.163 81.749 29.203 82.607 29.983 C 83.465 30.789 84.583 31.179 86.013 31.179 Z  M 87.053 28.111 C 86.507 28.111 86.039 27.981 85.675 27.721 C 85.311 27.461 85.129 27.097 85.129 26.603 C 85.129 26.109 85.311 25.719 85.701 25.433 C 86.065 25.173 86.585 25.043 87.287 25.043 L 89.575 25.043 L 89.575 25.823 C 89.575 26.317 89.445 26.733 89.211 27.071 C 88.951 27.409 88.639 27.669 88.249 27.851 C 87.859 28.033 87.443 28.111 87.053 28.111 Z " fill="rgb(255,255,255)"/></g></svg>